<?xml version="1.0" encoding="utf-8"?>
<!-- Generator: Adobe Illustrator 18.1.1, SVG Export Plug-In . SVG Version: 6.00 Build 0)  -->
<svg version="1.1" id="Layer_1" xmlns="http://www.w3.org/2000/svg" xmlns:xlink="http://www.w3.org/1999/xlink" x="0px" y="0px"
	 viewBox="238.3 0 800 800" enable-background="new 238.3 0 800 800" xml:space="preserve">
<g>
	<g>
		<defs>
			<rect id="SVGID_1_" x="238.3" width="800" height="800"/>
		</defs>
		<clipPath id="SVGID_2_">
			<use xlink:href="#SVGID_1_"  overflow="visible"/>
		</clipPath>
		<path clip-path="url(#SVGID_2_)" d="M945,337.9h-69.5c5,19.7,8.1,40.2,8.1,61.4c0,135.6-109.9,245.8-245.8,245.8
			C502.2,645.1,392,535.1,392,399.3c0-21.2,2.9-41.7,8.1-61.4h-69.5v337.9c0,17,13.7,30.7,30.7,30.7h553c17,0,30.7-13.7,30.7-30.7
			V337.9z M945,122.8c0-17-13.7-30.7-30.7-30.7h-92.1c-17,0-30.7,13.7-30.7,30.7v92.1c0,17,13.7,30.7,30.7,30.7h92.1
			c17,0,30.7-13.7,30.7-30.7V122.8z M637.8,245.8c-84.8,0-153.5,68.7-153.5,153.5S553.2,553,637.8,553s153.7-68.9,153.7-153.7
			C791.3,314.4,722.7,245.8,637.8,245.8 M945,798.8H330.6c-50.8,0-92.1-41.3-92.1-92.1V92.1C238.3,41.3,279.6,0,330.6,0H945
			c50.8,0,92.1,41.3,92.1,92.1v614.4C1037.1,757.5,995.8,798.8,945,798.8"/>
	</g>
</g>
</svg>
