<?xml version="1.0" encoding="utf-8"?>
<!-- Generator: Adobe Illustrator 18.1.1, SVG Export Plug-In . SVG Version: 6.00 Build 0)  -->
<svg version="1.1" id="Layer_1" xmlns="http://www.w3.org/2000/svg" xmlns:xlink="http://www.w3.org/1999/xlink" x="0px" y="0px"
	 viewBox="269.4 30 740 739.5" enable-background="new 269.4 30 740 739.5" xml:space="preserve">
<g>
	<g>
		<path d="M639.4,30c-204.4,0-370,165.6-370,370c0,156.7,97.2,290.6,235,344.4c-3.3-29.4-6.1-73.9,1.1-106.1
			c6.7-28.9,43.3-183.9,43.3-183.9s-11.1-22.2-11.1-55c0-51.7,30-90,66.7-90c31.7,0,46.7,23.9,46.7,52.2c0,31.7-20,79.4-30.6,123.3
			c-8.9,36.7,18.3,66.7,55,66.7c65.6,0,116.1-69.4,116.1-169.4c0-88.3-63.9-150.6-154.4-150.6c-105,0-167.2,78.9-167.2,160.6
			c0,31.7,12.2,66.1,27.8,84.4c2.8,3.9,3.3,6.7,2.8,10.6c-2.8,11.7-8.9,36.7-10,41.7c-1.7,6.7-5.6,8.3-12.2,5
			c-46.1-21.7-75-88.9-75-143.3c0-116.7,85-223.9,244.4-223.9c128.3,0,227.8,91.7,227.8,213.3c0,127.2-80.6,230-191.7,230
			c-37.2,0-72.8-19.4-85-42.2c0,0-18.3,70.6-22.8,87.8c-8.3,32.2-31.1,72.2-46.1,97.2c34.4,10.6,71.1,16.7,109.4,16.7
			c204.4,0,370-165.6,370-370C1009.4,195.6,843.9,30,639.4,30z"/>
	</g>
</g>
</svg>
