<?xml version="1.0" encoding="utf-8"?>
<!-- Generator: Adobe Illustrator 19.0.1, SVG Export Plug-In . SVG Version: 6.00 Build 0)  -->
<svg version="1.1" id="Layer_1" xmlns:sketch="http://www.bohemiancoding.com/sketch/ns"
	 xmlns="http://www.w3.org/2000/svg" xmlns:xlink="http://www.w3.org/1999/xlink" x="0px" y="0px" viewBox="-265 357 81 80"
	 style="enable-background:new -265 357 81 80;" xml:space="preserve">
<style type="text/css">
	.st0{fill:#D8D8D8;fill-opacity:0;}
</style>
<title>facebook</title>
<desc>Created with Sketch.</desc>
<g id="Page-1" sketch:type="MSPage">
	<g id="Rectangle-1-_x2B_-tw" transform="translate(0.000000, -9.000000)" sketch:type="MSLayerGroup">
		<rect id="Rectangle-1" x="-265" y="366" sketch:type="MSShapeGroup" class="st0" width="81" height="81">
		</rect>
		<g id="tw" transform="translate(0.000000, 9.000000)" sketch:type="MSShapeGroup">
			<g id="_x34_.-Expertise">
				<g id="_x34_.-Expertise-Fold-Out">
					<path id="twitter" d="M-184.5,373.6c-2.9,1.3-6.1,2.2-9.5,2.6c3.4-2,6-5.2,7.2-9c-3.2,1.8-6.7,3.2-10.5,3.9
						c-2.9-3.2-7.2-5.1-11.9-5.1c-9,0-16.4,7.2-16.4,16.2c0,1.3,0.2,2.5,0.5,3.7c-13.7-0.6-25.8-7.1-33.9-16.9
						c-1.5,2.4-2.2,5.1-2.2,8.1c0,5.6,2.9,10.5,7.3,13.4c-2.7-0.1-5.2-0.8-7.5-2v0.2c0,7.9,5.6,14.4,13.2,15.8
						c-1.4,0.4-2.8,0.5-4.4,0.5c-1.1,0-2.1-0.1-3.1-0.3c2.1,6.4,8.2,11.1,15.4,11.2c-5.6,4.3-12.7,6.9-20.4,6.9
						c-1.4,0-2.6-0.1-3.9-0.2c7.3,4.6,15.9,7.2,25.2,7.2c30.2,0,46.7-24.6,46.7-46c0-0.7,0-1.4-0.1-2.1
						C-189.5,379.6-186.6,376.8-184.5,373.6L-184.5,373.6L-184.5,373.6z"/>
				</g>
			</g>
		</g>
	</g>
</g>
</svg>
