<?xml version="1.0" encoding="utf-8"?>
<!-- Generator: Adobe Illustrator 19.0.1, SVG Export Plug-In . SVG Version: 6.00 Build 0)  -->
<svg version="1.1" id="Layer_1" xmlns:sketch="http://www.bohemiancoding.com/sketch/ns"
	 xmlns="http://www.w3.org/2000/svg" xmlns:xlink="http://www.w3.org/1999/xlink" x="0px" y="0px" viewBox="-265 357 81 80"
	 style="enable-background:new -265 357 81 80;" xml:space="preserve">
<title>facebook</title>
<desc>Created with Sketch.</desc>
<g id="_x34_.-Expertise" sketch:type="MSPage">
	<g id="_x34_.-Expertise-Fold-Out" transform="translate(-278.000000, -3430.000000)" sketch:type="MSArtboardGroup">
		<path id="facebook" sketch:type="MSShapeGroup" d="M13.5,3787v80h43v-36h-7v-10h7v-3.7v-3.2v-0.5c0-3.1,0-7.8,2.2-10.8
			c2.4-3.1,5.5-5.2,11.1-5.2c9.1,0,12.8,1.3,12.8,1.3l-1.8,10.6c0,0-3.1-0.9-5.9-0.9c-2.8,0-5.4,1-5.4,3.8v1.1v3.7v3.8h11.7l-0.8,10
			H69.5v36h24v-80H13.5L13.5,3787z"/>
	</g>
</g>
</svg>
