<?xml version="1.0" encoding="utf-8"?>
<!-- Generator: Adobe Illustrator 18.1.1, SVG Export Plug-In . SVG Version: 6.00 Build 0)  -->
<svg version="1.1" id="Layer_1" xmlns="http://www.w3.org/2000/svg" xmlns:xlink="http://www.w3.org/1999/xlink" x="0px" y="0px"
	 viewBox="0 0 738 738" enable-background="new 0 0 738 738" xml:space="preserve">
<g>
	<g>
		<g>
			<path fill="#010202" d="M683.4,0H54.5C24.4,0,0,23.8,0,53.2v631.6C0,714.1,24.4,738,54.5,738h628.9c30.1,0,54.7-23.9,54.7-53.3
				V53.2C738,23.8,713.5,0,683.4,0z M218.9,628.9H109.4V276.7h109.5V628.9z M164.1,228.5c-35.1,0-63.4-28.4-63.4-63.5
				c0-35,28.4-63.4,63.4-63.4c35,0,63.4,28.4,63.4,63.4C227.6,200.1,199.1,228.5,164.1,228.5z M628.9,628.9H519.5V457.6
				c0-40.9-0.8-93.4-56.9-93.4c-57,0-65.7,44.5-65.7,90.4v174.2H287.5V276.7h105v48.1h1.5c14.6-27.7,50.3-56.9,103.6-56.9
				c110.8,0,131.2,72.9,131.2,167.8V628.9z"/>
		</g>
	</g>
</g>
</svg>
