<?xml version="1.0" encoding="utf-8"?>
<!-- Generator: Adobe Illustrator 18.1.1, SVG Export Plug-In . SVG Version: 6.00 Build 0)  -->
<svg version="1.1" id="Layer_1" xmlns="http://www.w3.org/2000/svg" xmlns:xlink="http://www.w3.org/1999/xlink" x="0px" y="0px"
	 viewBox="0 0 384.1 385.7" enable-background="new 0 0 384.1 385.7" xml:space="preserve">
<g>
	<defs>
		<rect id="SVGID_1_" x="-1.6" width="385.7" height="385.7"/>
	</defs>
	<clipPath id="SVGID_2_">
		<use xlink:href="#SVGID_1_"  overflow="visible"/>
	</clipPath>
	<path clip-path="url(#SVGID_2_)" fill-rule="evenodd" clip-rule="evenodd" fill="#231F20" d="M339.1,162.9h-33.5
		c2.4,9.5,3.9,19.4,3.9,29.6c0,65.4-53,118.5-118.5,118.5c-65.4,0-118.5-53-118.5-118.5c0-10.2,1.4-20.1,3.9-29.6H42.9v162.9
		c0,8.2,6.6,14.8,14.8,14.8h266.6c8.2,0,14.8-6.6,14.8-14.8V162.9z M339.1,59.2c0-8.2-6.6-14.8-14.8-14.8h-44.4
		c-8.2,0-14.8,6.6-14.8,14.8v44.4c0,8.2,6.6,14.8,14.8,14.8h44.4c8.2,0,14.8-6.6,14.8-14.8V59.2z M191,118.5c-40.9,0-74,33.1-74,74
		c0,40.9,33.2,74.1,74,74.1s74.1-33.2,74.1-74.1C265,151.6,231.9,118.5,191,118.5 M339.1,385.1H42.9c-24.5,0-44.4-19.9-44.4-44.4
		V44.4C-1.6,19.9,18.3,0,42.9,0h296.2c24.5,0,44.4,19.9,44.4,44.4v296.2C383.5,365.2,363.6,385.1,339.1,385.1"/>
</g>
</svg>
