<svg width="45" height="36" viewBox="0 0 115 109" xmlns="http://www.w3.org/2000/svg">
  <title>
    MT_Favicon_120px_White
  </title>
  <path d="M101.617 108.927H115L108.15 0h-18.05l-27.39 78.273c-2.176 6.38-3.734 11.36-5.447 17.43-.93-4.67-2.796-12.14-4.2-16.494L26.615 0H8.09L0 108.927h12.918L17.12 40.46c.624-10.114 1.4-21.008 1.4-27.698 1.867 6.533 4.98 16.182 6.687 21.474l24.903 74.69h14.314L89.947 34.86c2.8-8.094 4.666-15.406 6.535-22.253 0 6.532.625 20.23.93 25.988l4.205 70.334" fill="#fff" fill-rule="evenodd"/>
</svg>
